<svg width="16" height="16" viewBox="0 0 16 16" fill="none" xmlns="http://www.w3.org/2000/svg">
<g clip-path="url(#clip0_791_3016)">
<path d="M6.59356 0.228425C6.40606 0.0315502 6.12481 -0.0434498 5.86231 0.0253002C5.59981 0.0940502 5.39669 0.303425 5.32794 0.565925L4.83419 2.51905L2.89669 1.97218C2.63419 1.89718 2.35294 1.97218 2.16231 2.1628C1.97169 2.35343 1.89669 2.63468 1.97169 2.89718L2.51856 4.83468L0.565437 5.33155C0.302937 5.39718 0.0966869 5.60343 0.0248119 5.86593C-0.0470631 6.12843 0.0310619 6.40655 0.227937 6.59405L1.67169 8.0003L0.227937 9.40655C0.0310619 9.59405 -0.0439381 9.8753 0.0248119 10.1378C0.0935619 10.4003 0.302937 10.6034 0.565437 10.6722L2.51856 11.1659L1.97169 13.1034C1.89669 13.3659 1.97169 13.6472 2.16231 13.8378C2.35294 14.0284 2.63419 14.1034 2.89669 14.0284L4.83419 13.4816L5.32794 15.4347C5.39356 15.6972 5.59981 15.9034 5.86231 15.9753C6.12481 16.0472 6.40294 15.9691 6.59356 15.7753L7.99981 14.3316L9.40606 15.7753C9.59669 15.9691 9.87481 16.0472 10.1373 15.9753C10.3998 15.9034 10.6029 15.6972 10.6717 15.4347L11.1654 13.4816L13.1029 14.0284C13.3654 14.1034 13.6467 14.0284 13.8373 13.8378C14.0279 13.6472 14.1029 13.3659 14.0279 13.1034L13.4811 11.1659L15.4342 10.6722C15.6967 10.6066 15.9029 10.4003 15.9748 10.1378C16.0467 9.8753 15.9686 9.59718 15.7748 9.40655L14.3311 8.0003L15.7748 6.59405C15.9686 6.40343 16.0467 6.1253 15.9748 5.8628C15.9029 5.6003 15.6967 5.39718 15.4342 5.32843L13.4811 4.83468L14.0279 2.89718C14.1029 2.63468 14.0279 2.35343 13.8373 2.1628C13.6467 1.97218 13.3654 1.89718 13.1029 1.97218L11.1654 2.51905L10.6686 0.565925C10.6029 0.303425 10.3967 0.0971752 10.1342 0.0253002C9.87169 -0.0465748 9.59356 0.0315502 9.40606 0.228425L7.99981 1.67218L6.59356 0.228425Z" fill="white"/>
</g>
<defs>
<clipPath id="clip0_791_3016">
<path d="M0 0H16V16H0V0Z" fill="white"/>
</clipPath>
</defs>
</svg>
