<svg width="27" height="36" viewBox="0 0 27 36" fill="none" xmlns="http://www.w3.org/2000/svg">
<g clip-path="url(#clip0_4155_1141)">
<path d="M26.3395 8.33896C27.2184 7.46006 27.2184 6.03271 26.3395 5.15381C25.4605 4.2749 24.0332 4.2749 23.1543 5.15381L0.654297 27.6538C-0.224609 28.5327 -0.224609 29.9601 0.654297 30.839C1.5332 31.7179 2.96055 31.7179 3.83945 30.839L26.3395 8.33896ZM9.00039 8.9999C9.00039 7.80643 8.52629 6.66184 7.68237 5.81792C6.83846 4.97401 5.69386 4.4999 4.50039 4.4999C3.30692 4.4999 2.16232 4.97401 1.31841 5.81792C0.474497 6.66184 0.000390612 7.80643 0.000390612 8.9999C0.000390612 10.1934 0.474497 11.338 1.31841 12.1819C2.16232 13.0258 3.30692 13.4999 4.50039 13.4999C5.69386 13.4999 6.83846 13.0258 7.68237 12.1819C8.52629 11.338 9.00039 10.1934 9.00039 8.9999ZM27.0004 26.9999C27.0004 25.8064 26.5263 24.6618 25.6824 23.8179C24.8385 22.974 23.6939 22.4999 22.5004 22.4999C21.3069 22.4999 20.1623 22.974 19.3184 23.8179C18.4745 24.6618 18.0004 25.8064 18.0004 26.9999C18.0004 28.1934 18.4745 29.338 19.3184 30.1819C20.1623 31.0258 21.3069 31.4999 22.5004 31.4999C23.6939 31.4999 24.8385 31.0258 25.6824 30.1819C26.5263 29.338 27.0004 28.1934 27.0004 26.9999Z" fill="white"/>
</g>
<defs>
<clipPath id="clip0_4155_1141">
<path d="M0 0H27V36H0V0Z" fill="white"/>
</clipPath>
</defs>
</svg>
