<svg width="16" height="16" viewBox="0 0 16 16" fill="none" xmlns="http://www.w3.org/2000/svg">
<path d="M16 16H0V0H16V16Z" stroke="#E5E7EB"/>
<path d="M4 1V2H2.5C1.67188 2 1 2.67188 1 3.5V5H15V3.5C15 2.67188 14.3281 2 13.5 2H12V1C12 0.446875 11.5531 0 11 0C10.4469 0 10 0.446875 10 1V2H6V1C6 0.446875 5.55312 0 5 0C4.44688 0 4 0.446875 4 1ZM15 6H1V14.5C1 15.3281 1.67188 16 2.5 16H13.5C14.3281 16 15 15.3281 15 14.5V6ZM8 7.75C8.41563 7.75 8.75 8.08438 8.75 8.5V10.25H10.5C10.9156 10.25 11.25 10.5844 11.25 11C11.25 11.4156 10.9156 11.75 10.5 11.75H8.75V13.5C8.75 13.9156 8.41563 14.25 8 14.25C7.58437 14.25 7.25 13.9156 7.25 13.5V11.75H5.5C5.08437 11.75 4.75 11.4156 4.75 11C4.75 10.5844 5.08437 10.25 5.5 10.25H7.25V8.5C7.25 8.08438 7.58437 7.75 8 7.75Z" fill="white"/>
</svg>
