<svg width="14" height="14" viewBox="0 0 14 14" fill="none" xmlns="http://www.w3.org/2000/svg">
<g clip-path="url(#clip0_853_4818)">
<path d="M2.625 9.625V2.625C2.625 1.65977 3.40977 0.875 4.375 0.875H11.375C12.3402 0.875 13.125 1.65977 13.125 2.625V8.02539C13.125 8.49023 12.9418 8.93594 12.6137 9.26406L11.0141 10.8637C10.6859 11.1918 10.2402 11.375 9.77539 11.375H4.375C3.40977 11.375 2.625 10.5902 2.625 9.625ZM7.4375 3.5C7.19688 3.5 7 3.69688 7 3.9375V5.25H5.6875C5.44688 5.25 5.25 5.44688 5.25 5.6875V6.5625C5.25 6.80312 5.44688 7 5.6875 7H7V8.3125C7 8.55312 7.19688 8.75 7.4375 8.75H8.3125C8.55313 8.75 8.75 8.55312 8.75 8.3125V7H10.0625C10.3031 7 10.5 6.80312 10.5 6.5625V5.6875C10.5 5.44688 10.3031 5.25 10.0625 5.25H8.75V3.9375C8.75 3.69688 8.55313 3.5 8.3125 3.5H7.4375ZM8.09375 12.6875C8.45742 12.6875 8.75 12.9801 8.75 13.3438C8.75 13.7074 8.45742 14 8.09375 14H3.71875C1.66523 14 0 12.3348 0 10.2812V4.15625C0 3.79258 0.292578 3.5 0.65625 3.5C1.01992 3.5 1.3125 3.79258 1.3125 4.15625V10.2812C1.3125 11.6102 2.38984 12.6875 3.71875 12.6875H8.09375Z" fill="#6BBE23"/>
</g>
<defs>
<clipPath id="clip0_853_4818">
<path d="M0 0H14V14H0V0Z" fill="white"/>
</clipPath>
</defs>
</svg>
