<svg width="16" height="14" viewBox="0 0 16 14" fill="none" xmlns="http://www.w3.org/2000/svg">
<g clip-path="url(#clip0_853_4769)">
<path d="M3.89375 0.598778C4.04687 1.05815 3.79805 1.55308 3.34141 1.7062L2.625 1.94409V5.24995C2.625 6.69917 3.80078 7.87495 5.25 7.87495C6.69922 7.87495 7.875 6.69917 7.875 5.24995V1.94409L7.16133 1.7062C6.70195 1.55308 6.45586 1.05815 6.60898 0.598778C6.76211 0.139403 7.25703 -0.106691 7.71641 0.0464344L8.43008 0.284325C9.14375 0.522216 9.625 1.1894 9.625 1.94409V5.24995C9.625 7.36089 8.13203 9.12183 6.14414 9.53472C6.31641 11.0632 7.6125 12.25 9.1875 12.25C10.8801 12.25 12.25 10.88 12.25 9.18745V7.25425C11.4762 6.91792 10.9375 6.14683 10.9375 5.24995C10.9375 4.04136 11.9164 3.06245 13.125 3.06245C14.3336 3.06245 15.3125 4.04136 15.3125 5.24995C15.3125 6.14683 14.7738 6.91792 14 7.25425V9.18745C14 11.8453 11.8453 14 9.1875 14C6.64727 14 4.56914 12.0339 4.38867 9.54018C2.38437 9.13823 0.875 7.37183 0.875 5.24995V1.94409C0.875 1.19214 1.35625 0.522216 2.07266 0.284325L2.78633 0.0464344C3.2457 -0.106691 3.74062 0.142137 3.89375 0.598778ZM13.125 6.12495C13.3571 6.12495 13.5796 6.03276 13.7437 5.86867C13.9078 5.70457 14 5.48201 14 5.24995C14 5.01789 13.9078 4.79533 13.7437 4.63123C13.5796 4.46714 13.3571 4.37495 13.125 4.37495C12.8929 4.37495 12.6704 4.46714 12.5063 4.63123C12.3422 4.79533 12.25 5.01789 12.25 5.24995C12.25 5.48201 12.3422 5.70457 12.5063 5.86867C12.6704 6.03276 12.8929 6.12495 13.125 6.12495Z" fill="#6BBE23"/>
</g>
<defs>
<clipPath id="clip0_853_4769">
<path d="M0 0H15.75V14H0V0Z" fill="white"/>
</clipPath>
</defs>
</svg>
