<svg width="18" height="14" viewBox="0 0 18 14" fill="none" xmlns="http://www.w3.org/2000/svg">
<g clip-path="url(#clip0_882_3487)">
<path d="M4.8125 7.875C5.21467 7.875 5.61291 7.79579 5.98447 7.64188C6.35603 7.48798 6.69363 7.26239 6.97801 6.97801C7.26239 6.69363 7.48798 6.35603 7.64188 5.98447C7.79579 5.61291 7.875 5.21467 7.875 4.8125C7.875 4.41033 7.79579 4.01209 7.64188 3.64053C7.48798 3.26897 7.26239 2.93136 6.97801 2.64699C6.69363 2.36261 6.35603 2.13702 5.98447 1.98312C5.61291 1.82921 5.21467 1.75 4.8125 1.75C4.41033 1.75 4.01209 1.82921 3.64053 1.98312C3.26897 2.13702 2.93136 2.36261 2.64699 2.64699C2.36261 2.93136 2.13702 3.26897 1.98312 3.64053C1.82921 4.01209 1.75 4.41033 1.75 4.8125C1.75 5.21467 1.82921 5.61291 1.98312 5.98447C2.13702 6.35603 2.36261 6.69363 2.64699 6.97801C2.93136 7.26239 3.26897 7.48798 3.64053 7.64188C4.01209 7.79579 4.41033 7.875 4.8125 7.875ZM9.625 4.8125C9.625 7.17227 7.92695 9.13555 5.6875 9.5457V10.5H6.5625C7.04648 10.5 7.4375 10.891 7.4375 11.375C7.4375 11.859 7.04648 12.25 6.5625 12.25H5.6875V13.125C5.6875 13.609 5.29648 14 4.8125 14C4.32852 14 3.9375 13.609 3.9375 13.125V12.25H3.0625C2.57852 12.25 2.1875 11.859 2.1875 11.375C2.1875 10.891 2.57852 10.5 3.0625 10.5H3.9375V9.5457C1.69805 9.13555 0 7.17227 0 4.8125C0 2.15469 2.15469 0 4.8125 0C7.47031 0 9.625 2.15469 9.625 4.8125ZM7.43477 9.86016C7.9625 9.58398 8.44375 9.22852 8.85938 8.81016C9.40625 9.31602 10.1363 9.625 10.9402 9.625C12.6328 9.625 14.0027 8.25508 14.0027 6.5625C14.0027 4.86992 12.6328 3.5 10.9402 3.5C10.7434 3.5 10.5492 3.51914 10.3633 3.55469C10.2293 2.9668 10.0078 2.41445 9.70703 1.90859C10.098 1.80469 10.5109 1.75 10.9375 1.75C11.9492 1.75 12.8898 2.06172 13.6664 2.59766L14.2297 2.03437L13.3164 1.12109C13.1277 0.932422 13.073 0.650781 13.1742 0.404687C13.2754 0.158594 13.516 0 13.7812 0H16.8438C17.2074 0 17.5 0.292578 17.5 0.65625V3.71875C17.5 3.98398 17.3414 4.22461 17.0953 4.32578C16.8492 4.42695 16.5676 4.37227 16.3789 4.18359L15.4656 3.27031L14.9023 3.83359C15.4355 4.61016 15.75 5.54805 15.75 6.5625C15.75 9.22031 13.5953 11.375 10.9375 11.375C9.55664 11.375 8.3125 10.7926 7.43477 9.86016Z" fill="#6BBE23"/>
</g>
<defs>
<clipPath id="clip0_882_3487">
<path d="M0 0H17.5V14H0V0Z" fill="white"/>
</clipPath>
</defs>
</svg>
