<svg width="30" height="30" viewBox="0 0 30 30" fill="none" xmlns="http://www.w3.org/2000/svg">
<path d="M30 30H0V0H30V30Z" stroke="#E5E7EB"/>
<path d="M8.73633 3.79688L8.12695 5.625H3.75C1.68164 5.625 0 7.30664 0 9.375V24.375C0 26.4434 1.68164 28.125 3.75 28.125H26.25C28.3184 28.125 30 26.4434 30 24.375V9.375C30 7.30664 28.3184 5.625 26.25 5.625H21.873L21.2637 3.79688C20.8828 2.64844 19.8105 1.875 18.5977 1.875H11.4023C10.1895 1.875 9.11719 2.64844 8.73633 3.79688ZM15 11.25C16.4918 11.25 17.9226 11.8426 18.9775 12.8975C20.0324 13.9524 20.625 15.3832 20.625 16.875C20.625 18.3668 20.0324 19.7976 18.9775 20.8525C17.9226 21.9074 16.4918 22.5 15 22.5C13.5082 22.5 12.0774 21.9074 11.0225 20.8525C9.96763 19.7976 9.375 18.3668 9.375 16.875C9.375 15.3832 9.96763 13.9524 11.0225 12.8975C12.0774 11.8426 13.5082 11.25 15 11.25Z" fill="#9CA3AF"/>
</svg>
