<svg width="32" height="32" viewBox="0 0 32 32" fill="none" xmlns="http://www.w3.org/2000/svg">
<path fill-rule="evenodd" clip-rule="evenodd" d="M8.36822 11.5361C8.59744 11.3156 8.90483 11.1951 9.22285 11.2011C9.54086 11.2071 9.84349 11.3391 10.0642 11.5681L16.0002 17.8689L21.9362 11.5681C22.0441 11.4491 22.1748 11.3531 22.3205 11.2855C22.4662 11.218 22.624 11.1804 22.7845 11.175C22.945 11.1696 23.105 11.1964 23.2549 11.254C23.4049 11.3115 23.5417 11.3985 23.6574 11.5099C23.7731 11.6213 23.8652 11.7548 23.9284 11.9025C23.9915 12.0501 24.0244 12.209 24.025 12.3696C24.0257 12.5302 23.9941 12.6893 23.9321 12.8374C23.8701 12.9856 23.779 13.1198 23.6642 13.2321L16.8642 20.4321C16.7523 20.5482 16.6181 20.6406 16.4696 20.7037C16.3212 20.7668 16.1615 20.7993 16.0002 20.7993C15.8389 20.7993 15.6793 20.7668 15.5308 20.7037C15.3824 20.6406 15.2482 20.5482 15.1362 20.4321L8.33622 13.2321C8.11569 13.0029 7.99519 12.6955 8.00119 12.3775C8.00719 12.0594 8.13921 11.7568 8.36822 11.5361Z" fill="black"/>
</svg>
