<svg width="32" height="32" viewBox="0 0 32 32" fill="none" xmlns="http://www.w3.org/2000/svg">
<path fill-rule="evenodd" clip-rule="evenodd" d="M8.36822 11.5356C8.59744 11.3151 8.90483 11.1946 9.22285 11.2006C9.54086 11.2066 9.84349 11.3386 10.0642 11.5676L16.0002 17.8684L21.9362 11.5676C22.0441 11.4486 22.1748 11.3526 22.3205 11.285C22.4662 11.2175 22.624 11.1799 22.7845 11.1745C22.945 11.1691 23.105 11.1959 23.2549 11.2535C23.4049 11.311 23.5417 11.398 23.6574 11.5094C23.7731 11.6208 23.8652 11.7543 23.9284 11.902C23.9915 12.0496 24.0244 12.2085 24.025 12.3691C24.0257 12.5297 23.9941 12.6888 23.9321 12.8369C23.8701 12.9851 23.779 13.1193 23.6642 13.2316L16.8642 20.4316C16.7523 20.5477 16.6181 20.6401 16.4696 20.7032C16.3212 20.7663 16.1615 20.7988 16.0002 20.7988C15.8389 20.7988 15.6793 20.7663 15.5308 20.7032C15.3824 20.6401 15.2482 20.5477 15.1362 20.4316L8.33622 13.2316C8.11569 13.0024 7.99519 12.695 8.00119 12.377C8.00719 12.059 8.13921 11.7563 8.36822 11.5356Z" fill="black"/>
</svg>
