<svg width="13" height="14" viewBox="0 0 13 14" fill="none" xmlns="http://www.w3.org/2000/svg">
<g clip-path="url(#clip0_882_3479)">
<path d="M2.3625 0.150391L1.68984 1.30156C1.58594 1.4793 1.53125 1.68437 1.53125 1.89219V1.96875C1.53125 2.57305 2.0207 3.0625 2.625 3.0625C3.2293 3.0625 3.71875 2.57305 3.71875 1.96875V1.89219C3.71875 1.68437 3.66406 1.48203 3.56016 1.30156L2.8875 0.150391C2.83281 0.0574219 2.73438 0 2.625 0C2.51562 0 2.41719 0.0574219 2.3625 0.150391ZM5.8625 0.150391L5.18984 1.30156C5.08594 1.4793 5.03125 1.68437 5.03125 1.89219V1.96875C5.03125 2.57305 5.5207 3.0625 6.125 3.0625C6.7293 3.0625 7.21875 2.57305 7.21875 1.96875V1.89219C7.21875 1.68437 7.16406 1.48203 7.06016 1.30156L6.3875 0.150391C6.33281 0.0574219 6.23438 0 6.125 0C6.01562 0 5.91719 0.0574219 5.8625 0.150391ZM8.68984 1.30156C8.58594 1.4793 8.53125 1.68437 8.53125 1.89219V1.96875C8.53125 2.57305 9.0207 3.0625 9.625 3.0625C10.2293 3.0625 10.7188 2.57305 10.7188 1.96875V1.89219C10.7188 1.68437 10.6641 1.48203 10.5602 1.30156L9.8875 0.150391C9.83281 0.0574219 9.73438 0 9.625 0C9.51562 0 9.41719 0.0574219 9.3625 0.150391L8.68984 1.30156ZM3.5 4.8125C3.5 4.32852 3.10898 3.9375 2.625 3.9375C2.14102 3.9375 1.75 4.32852 1.75 4.8125V6.125C0.784766 6.125 0 6.90977 0 7.875V9.81641C0.226953 9.95859 0.494922 10.0625 0.7875 10.0625C1.15664 10.0625 1.53125 9.8957 1.8375 9.69609C1.98516 9.60039 2.1082 9.50195 2.19297 9.43086C2.23398 9.39531 2.2668 9.36523 2.28867 9.34609C2.29961 9.33516 2.30781 9.32969 2.31055 9.32422L2.31328 9.32148C2.39805 9.23398 2.51562 9.1875 2.63867 9.19023C2.76172 9.19297 2.87383 9.24766 2.95586 9.33789L2.95859 9.34062C2.96133 9.34336 2.96953 9.35156 2.97773 9.35977C2.99688 9.37891 3.02422 9.40625 3.0625 9.4418C3.13906 9.51289 3.24844 9.60859 3.38516 9.70156C3.66406 9.8957 4.01406 10.0598 4.37773 10.0598C4.74141 10.0598 5.09141 9.8957 5.37031 9.70156C5.50703 9.60586 5.61641 9.51289 5.69297 9.4418C5.73125 9.40625 5.75859 9.37891 5.77773 9.35977C5.78594 9.35156 5.79414 9.34336 5.79688 9.34062L5.79961 9.33789C5.88164 9.24219 6.00195 9.19023 6.12773 9.19023C6.25352 9.19023 6.37383 9.24492 6.45586 9.33789L6.45859 9.34062C6.46133 9.34336 6.46953 9.35156 6.47773 9.35977C6.49687 9.37891 6.52422 9.40625 6.5625 9.4418C6.63906 9.51289 6.74844 9.60859 6.88516 9.70156C7.16406 9.8957 7.51406 10.0598 7.87773 10.0598C8.24141 10.0598 8.59141 9.8957 8.87031 9.70156C9.00703 9.60586 9.11641 9.51289 9.19297 9.4418C9.23125 9.40625 9.25859 9.37891 9.27773 9.35977C9.28594 9.35156 9.29414 9.34336 9.29688 9.34062L9.29961 9.33789C9.37891 9.24492 9.49375 9.19297 9.6168 9.19023C9.73984 9.1875 9.85469 9.23398 9.94219 9.32148L9.94492 9.32422C9.95039 9.32969 9.95586 9.33516 9.9668 9.34609C9.98867 9.36523 10.0188 9.39531 10.0625 9.43086C10.1473 9.50195 10.2676 9.60039 10.418 9.69609C10.7242 9.8957 11.0988 10.0625 11.468 10.0625C11.7605 10.0625 12.0285 9.95586 12.2555 9.81641V7.875C12.2555 6.90977 11.4707 6.125 10.5055 6.125V4.8125C10.5055 4.32852 10.1145 3.9375 9.63047 3.9375C9.14648 3.9375 8.75547 4.32852 8.75547 4.8125V6.125H7V4.8125C7 4.32852 6.60898 3.9375 6.125 3.9375C5.64102 3.9375 5.25 4.32852 5.25 4.8125V6.125H3.5V4.8125ZM12.25 10.7898C12.0176 10.8801 11.7523 10.9375 11.4625 10.9375C10.8473 10.9375 10.3031 10.6668 9.93672 10.4289C9.82461 10.3551 9.72344 10.2812 9.63867 10.2156C9.56211 10.2812 9.47188 10.3523 9.3707 10.4207C9.01797 10.6641 8.49297 10.9375 7.875 10.9375C7.25703 10.9375 6.73203 10.6641 6.38203 10.4207C6.28633 10.3551 6.19883 10.2867 6.125 10.2238C6.05117 10.2867 5.96367 10.3523 5.86797 10.4207C5.51797 10.6641 4.99297 10.9375 4.375 10.9375C3.75703 10.9375 3.23203 10.6641 2.88203 10.4207C2.78086 10.3496 2.69062 10.2785 2.61406 10.2156C2.5293 10.2812 2.42812 10.3551 2.31602 10.4289C1.94687 10.6668 1.40273 10.9375 0.7875 10.9375C0.497656 10.9375 0.232422 10.8773 0 10.7898V13.125C0 13.609 0.391016 14 0.875 14H11.375C11.859 14 12.25 13.609 12.25 13.125V10.7898Z" fill="#6BBE23"/>
</g>
<defs>
<clipPath id="clip0_882_3479">
<path d="M0 0H12.25V14H0V0Z" fill="white"/>
</clipPath>
</defs>
</svg>
