<svg width="18" height="14" viewBox="0 0 18 14" fill="none" xmlns="http://www.w3.org/2000/svg">
<g clip-path="url(#clip0_882_3520)">
<path d="M8.75042 0.875C8.52894 0.875 8.31019 0.913281 8.10237 0.987109L0.432452 3.75703C0.172687 3.85273 0.000420882 4.09883 0.000420882 4.375C0.000420882 4.65117 0.172687 4.89727 0.432452 4.99297L2.01566 5.56445C1.56722 6.26992 1.31292 7.10391 1.31292 7.98164V8.75C1.31292 9.52656 1.01761 10.3277 0.703155 10.9594C0.525421 11.3148 0.323077 11.6648 0.0879209 11.9875C0.000420883 12.1051 -0.0241885 12.2582 0.0250303 12.3977C0.074249 12.5371 0.189093 12.641 0.33128 12.6766L2.08128 13.1141C2.19612 13.1441 2.31917 13.1223 2.42034 13.0594C2.52151 12.9965 2.59261 12.8926 2.61448 12.775C2.84964 11.6047 2.73206 10.5547 2.55706 9.80273C2.46956 9.41445 2.35198 9.01797 2.18792 8.6543V7.98164C2.18792 7.15586 2.46683 6.37656 2.95081 5.75312C3.30355 5.3293 3.76019 4.9875 4.29612 4.77695L8.58909 3.08984C8.81331 3.00234 9.06761 3.11172 9.15511 3.33594C9.24261 3.56016 9.13323 3.81445 8.90901 3.90195L4.61605 5.58906C4.27698 5.72305 3.97894 5.92812 3.73558 6.17969L8.09964 7.75469C8.30745 7.82852 8.5262 7.8668 8.74769 7.8668C8.96917 7.8668 9.18792 7.82852 9.39573 7.75469L17.0684 4.99297C17.3282 4.9 17.5004 4.65117 17.5004 4.375C17.5004 4.09883 17.3282 3.85273 17.0684 3.75703L9.39847 0.987109C9.19065 0.913281 8.9719 0.875 8.75042 0.875ZM3.50042 11.1562C3.50042 12.1215 5.85198 13.125 8.75042 13.125C11.6489 13.125 14.0004 12.1215 14.0004 11.1562L13.5821 7.18047L9.69378 8.58594C9.39026 8.69531 9.07034 8.75 8.75042 8.75C8.4305 8.75 8.10784 8.69531 7.80706 8.58594L3.91878 7.18047L3.50042 11.1562Z" fill="white"/>
</g>
<defs>
<clipPath id="clip0_882_3520">
<path d="M0 0H17.5V14H0V0Z" fill="white"/>
</clipPath>
</defs>
</svg>
