<svg width="41" height="36" viewBox="0 0 41 36" fill="none" xmlns="http://www.w3.org/2000/svg">
<g clip-path="url(#clip0_4155_1517)">
<path d="M12.8742 16.5445C15.2438 18 17.2969 19.9266 18.907 22.2047C19.3992 22.9008 19.8492 23.632 20.25 24.3844C20.6508 23.625 21.1008 22.9008 21.593 22.2047C23.2031 19.9266 25.2563 18 27.6258 16.5445C30.7687 14.6109 34.4602 13.5 38.3906 13.5H39.0867C39.8672 13.5 40.5 14.1328 40.5 14.9133C40.5 25.3195 32.0695 33.75 21.6633 33.75H20.25H18.8367C8.43047 33.75 0 25.3195 0 14.9133C0 14.1328 0.632812 13.5 1.41328 13.5H2.10938C6.03984 13.5 9.73125 14.6109 12.8742 16.5445ZM21.1992 2.64375C22.3031 3.83203 25.4953 7.69219 27.1336 14.2172C24.4617 15.7359 22.1133 17.7891 20.25 20.2359C18.3867 17.7891 16.0383 15.743 13.3664 14.2172C14.9977 7.69219 18.1898 3.83203 19.3008 2.64375C19.5469 2.38359 19.8914 2.25 20.25 2.25C20.6086 2.25 20.9531 2.38359 21.1992 2.64375Z" fill="white"/>
</g>
<defs>
<clipPath id="clip0_4155_1517">
<path d="M0 0H40.5V36H0V0Z" fill="white"/>
</clipPath>
</defs>
</svg>
